<?xml version="1.0" encoding="utf-8"?>
<!-- Generator: Adobe Illustrator 19.0.0, SVG Export Plug-In . SVG Version: 6.00 Build 0)  -->
<svg version="1.1" id="Layer_1" xmlns="http://www.w3.org/2000/svg" xmlns:xlink="http://www.w3.org/1999/xlink" x="0px" y="0px"
	 width="1000px" height="500px" viewBox="0 0 1000 500" style="enable-background:new 0 0 1000 500;" xml:space="preserve">
<style type="text/css">
	.st0{fill:#FFFFFF;}
</style>
<g>
	<path class="st0" d="M478,133.2c-4.4-2.6-1.2-23.2-3.2-28.5c-2-5.3-3.1-11.6-3-18.8c0-1.1,0-3.9,0-8.3c0.1-2.9-0.6-4.7-2-5.6
		c-1.2-0.7-2.5-0.6-3.7,0.5c-1.2,1-3.2,3.7-6.1,8.1c-2.1,3.3-3.8,5.7-5,7.1c-1.2,1.4-2.5,2.6-4,3.3c-1.5,0.8-3.2,1.1-5.2,1.1
		c-2-0.1-3.8-0.6-5.4-1.6c-4.5-2.7-6.1-7-4.8-13c0.8-3.5,1.3-6,1.4-7.5c0.1-1.5,0-3.3-0.3-5.3c-0.3-1.5-0.5-2.7-0.7-3.8
		c-0.2-1.1-0.3-1.9-0.5-2.6c-0.6-3.9-0.1-7.2,1.6-10.2c1.5-2.5,3.5-4.1,6.1-4.9c2.6-0.8,5.2-0.4,7.7,1.1c2.6,1.6,5.3,4.7,8.1,9.5
		c2.2,3.6,3.8,6,4.6,7.2c0.8,1.1,1.7,2,2.7,2.6c0.9,0.5,1.8,0.7,2.8,0.6c0.9-0.2,1.6-0.6,2.1-1.5c0.9-1.5,0.7-3.3-0.5-5.6
		c-1.2-2.2-3.6-5.2-7.3-9c-5.1-5.3-8.3-9.7-9.7-13.4c-1.4-3.7-1.2-7.1,0.6-10.2c1.5-2.5,3.8-4.1,6.9-4.6c1-0.2,2.1-0.3,3.3-0.2
		c1.2,0.1,3.3,0.4,6.4,0.9c3.9,0.6,7.9,0.6,11.9,0c3.1-0.6,5.5-0.7,7.3-0.6c1.8,0.2,3.4,0.7,4.9,1.6c2.7,1.6,4.3,3.9,4.9,6.8
		c0.5,3-0.2,6-2,9.2c-1.7,2.9-4.2,5.7-7.5,8.3c-3.2,2.8-5.5,4.9-7,6.4c-1.5,1.5-2.6,2.8-3.2,3.9c-0.9,1.5-1.2,2.9-1.1,4.2
		c0.1,1.3,0.7,2.3,1.7,2.8c1.6,0.9,3.3,0.8,5-0.3c1.7-1.1,3.9-3.9,6.5-8.4c6.1-10.4,12.6-13.6,19.3-9.6c3.3,1.9,5.1,4.7,5.6,8.4
		c0.2,1.3,0.3,2.4,0.1,3.3c-0.1,0.9-0.6,3-1.5,6.4c-0.5,2-0.8,3.6-0.9,4.8c0,1.2,0.1,2.9,0.5,4.9c0.8,4.4,1.1,7.5,1,9.4
		c-0.1,1.9-0.6,3.6-1.6,5.3c-1.5,2.6-3.7,4.3-6.5,5c-2.8,0.8-5.5,0.4-8.1-1.1c-2.5-1.5-5.4-5-8.8-10.7c-3.5-5.6-6-8.9-7.5-9.8
		c-2.1-1.2-3.6-0.9-4.7,0.8c-0.9,1.5-1.5,4.9-1.8,10.1c-0.4,7.6,0.2,13.9,1.6,18.8C480.6,105.7,482.3,135.7,478,133.2z"/>
</g>
<g id="XMLID_63_">
	<path id="XMLID_64_" class="st0" d="M171,371.8c8.6,0,13.5,2.7,15.6,4.5l-3.3,4.2c-2.7-2.1-6.6-3.7-13-3.7
		c-11.5,0-18.7,8.3-18.7,26.6c0,17.8,6.7,26.9,19.2,26.9c6.4,0,10-1.3,12.3-3.4l3,3.8c-2.7,2.6-7.9,4.7-16.2,4.7
		c-16.5,0-23.8-12.2-23.8-31.4C146.3,383.5,155,371.8,171,371.8z"/>
	<path id="XMLID_66_" class="st0" d="M217.3,435.3c-14.4,0-23.2-8.8-23.2-31.5c0-22.9,9.1-32.1,23.9-32.1c14.4,0,23.2,8.8,23.2,31.5
		C241.2,426.2,232.1,435.3,217.3,435.3z M217.7,430.3c11,0,18-6.3,18-26.4c0-20.4-7-27-18.1-27c-10.9,0-18,6.3-18,26.4
		C199.6,423.6,206.7,430.3,217.7,430.3z"/>
	<path id="XMLID_69_" class="st0" d="M269.8,372.7c12.6,0,20.4,5,20.4,17.2c0,10-6.7,16-14.2,16.7v0.4c2.3,1,4.6,2.9,7.3,7.6
		l11.9,19.9h-6.3l-11.5-19.6c-2.6-4.5-5.7-6.7-10.7-6.7h-5.9v26.3h-5.3v-61.8H269.8z M260.8,403.3h8.7c8.9,0,15.2-3.4,15.2-12.8
		c0-9.4-5.6-12.9-15.8-12.9h-8.1V403.3z"/>
	<path id="XMLID_72_" class="st0" d="M343.9,390.2c0,12.5-7.4,19.2-20.5,19.2h-10.6v25h-5.3v-61.8h16.8
		C336.6,372.7,343.9,378.2,343.9,390.2z M312.8,377.6v26.9h10.7c10.6,0,14.9-4.7,14.9-13.7c0-9.5-5.5-13.1-15.5-13.1H312.8z"/>
	<path id="XMLID_75_" class="st0" d="M376.1,435.3c-14.4,0-23.2-8.8-23.2-31.5c0-22.9,9.1-32.1,23.9-32.1c14.4,0,23.2,8.8,23.2,31.5
		C400,426.2,390.9,435.3,376.1,435.3z M376.6,430.3c11,0,18-6.3,18-26.4c0-20.4-7-27-18.1-27c-10.9,0-18,6.3-18,26.4
		C358.4,423.6,365.6,430.3,376.6,430.3z"/>
	<path id="XMLID_78_" class="st0" d="M428.6,372.7c12.6,0,20.4,5,20.4,17.2c0,10-6.7,16-14.2,16.7v0.4c2.3,1,4.6,2.9,7.3,7.6
		l11.9,19.9h-6.3l-11.5-19.6c-2.6-4.5-5.7-6.7-10.7-6.7h-5.9v26.3h-5.3v-61.8H428.6z M419.7,403.3h8.7c8.9,0,15.2-3.4,15.2-12.8
		c0-9.4-5.6-12.9-15.8-12.9h-8.1V403.3z"/>
	<path id="XMLID_81_" class="st0" d="M496,415.4h-25.9l-6.3,19h-5.6l20.4-61.8h8.9l20.4,61.8h-5.6L496,415.4z M494.4,410.5l-7.8-24
		l-3.3-10.2h-0.4l-3.3,10l-7.9,24.1H494.4z"/>
	<path id="XMLID_84_" class="st0" d="M522,377.6h-16.8v-4.9h38.9v4.9h-16.7v56.8H522V377.6z"/>
	<path id="XMLID_86_" class="st0" d="M554.8,372.7h5.3v61.8h-5.3V372.7z"/>
	<path id="XMLID_88_" class="st0" d="M598.5,435.3c-14.4,0-23.2-8.8-23.2-31.5c0-22.9,9.1-32.1,23.9-32.1c14.4,0,23.2,8.8,23.2,31.5
		C622.4,426.2,613.3,435.3,598.5,435.3z M599,430.3c11,0,18-6.3,18-26.4c0-20.4-7-27-18.1-27c-10.9,0-18,6.3-18,26.4
		C580.8,423.6,587.9,430.3,599,430.3z"/>
	<path id="XMLID_91_" class="st0" d="M641.8,378.9v55.6h-5v-61.8h8.2l23,43.1l6.7,12.5h0.7v-55.6h4.9v61.8h-8.1l-22.9-42.9
		l-6.8-12.7H641.8z"/>
	<path id="XMLID_93_" class="st0" d="M728.4,372.7v56.8H756v4.9h-32.9v-61.8H728.4z"/>
	<path id="XMLID_95_" class="st0" d="M768,377.6h-16.8v-4.9h38.9v4.9h-16.7v56.8H768V377.6z"/>
	<path id="XMLID_97_" class="st0" d="M799.9,372.7h15.4c18.1,0,26.3,9.5,26.3,30.5c0,21.3-8.6,31.3-26.6,31.3h-15.2V372.7z
		 M805.2,429.4h10.1c13.8,0,20.9-6.3,20.9-25.6c0-19.4-7.5-26.2-21.4-26.2h-9.6V429.4z"/>
</g>
<g>
	<path class="st0" d="M207.9,154.3l33-82.2h20.9v115.2h-12.7V87.5h-1c-9.4,22.3-24.6,60.8-34,83.1h-14l-33.8-83.1h-1v99.7h-12.5
		V72.1h21l33,82.2H207.9z"/>
	<path class="st0" d="M342.5,123.7v40.4c0,8,2.5,13.5,8.7,13.5h2.3v9.4c-1.2,0.7-3,1-4.6,1c-8.9,0-14.1-4.8-16.3-10.8H332
		c-4.3,4.9-11.5,12-26.6,12c-16.6,0-25.8-11.7-25.8-23.8c0-19.7,19.4-29.4,51.1-28.9v-9.7c0-14.6-7.1-18.9-18.9-18.9
		c-12,0-17.7,6.6-20.4,10.8l-9.4-7.4c3.1-4.3,11.5-14.6,30.1-14.6C331.1,96.6,342.5,105,342.5,123.7z M330.6,146.4
		c-21.5-0.8-38.4,4.4-38.4,17.9c0,7.9,5.8,14.3,16.1,14.3c10.2,0,18.2-6.1,22.3-12.2V146.4z"/>
	<path class="st0" d="M438.2,187.9c0,23.5-14.5,35.2-36.8,35.2c-16.9,0-25.8-5.9-29.4-9.5l7.4-10.2c4.4,4.4,11.5,8.4,23.5,8.4
		c16.3,0,22.8-7.9,22.8-23.8v-8.2h-0.7c-2.8,2.5-10.4,7.1-21.9,7.1c-18.4,0-34-11.5-34-41.9c0-28.6,14-47.8,43.5-47.8
		c11.3,0,20,2,25.5,4.6V187.9z M411,108.2c-17.3,0-28.8,11.3-28.8,35c0,25.6,11.8,32.4,24.5,32.4c7.1,0,14.6-3.1,18.9-8.7v-56.2
		C421.8,109.2,416.7,108.2,411,108.2z"/>
	<path class="st0" d="M469.8,97.9h12.8v89.4h-12.8V97.9z"/>
	<path class="st0" d="M546.2,96.4c14.3,0,22.2,5.6,25.5,9.4l-8.5,9.4c-3.6-3.8-8.9-7.4-17.6-7.4c-14.5,0-24.2,9.5-24.2,34.5
		c0,25.5,9.2,35.2,24.2,35.2c8.2,0,13.8-3,17.4-7.1l7.9,8.9c-3.6,4.1-11.2,9.5-26.5,9.5c-21.9,0-36.1-12.7-36.1-44.9
		C508.2,111,524.3,96.4,546.2,96.4z"/>
	<path class="st0" d="M648.5,123.7v40.4c0,8,2.5,13.5,8.7,13.5h2.3v9.4c-1.2,0.7-3,1-4.6,1c-8.9,0-14.1-4.8-16.3-10.8H638
		c-4.3,4.9-11.5,12-26.6,12c-16.6,0-25.8-11.7-25.8-23.8c0-19.7,19.4-29.4,51.1-28.9v-9.7c0-14.6-7.1-18.9-18.9-18.9
		c-12,0-17.7,6.6-20.4,10.8l-9.4-7.4c3.1-4.3,11.5-14.6,30.1-14.6C637.2,96.6,648.5,105,648.5,123.7z M636.7,146.4
		c-21.5-0.8-38.4,4.4-38.4,17.9c0,7.9,5.8,14.3,16.1,14.3c10.2,0,18.2-6.1,22.3-12.2V146.4z"/>
	<path class="st0" d="M693.7,62.6v103.5c0,7.9,2.6,11.3,9.4,11.3c3.3,0,5.8-1,7.4-1.8v10.8c-3.3,1.5-7.7,2-11.2,2
		c-12.3,0-18.2-7.2-18.2-18.9v-107H693.7z"/>
	<path class="st0" d="M741,62.6v103.5c0,7.9,2.6,11.3,9.4,11.3c3.3,0,5.8-1,7.4-1.8v10.8c-3.3,1.5-7.7,2-11.2,2
		c-12.3,0-18.2-7.2-18.2-18.9v-107H741z"/>
	<path class="st0" d="M767.5,208.6c2.3,0.8,5.9,1.5,8.4,1.5c11.2,0,17.3-5.9,21.2-19.7l-32.4-92.5h13.8l14.5,43.9
		c5.3,16.1,7.9,24.8,10,32.5h0.7c1.5-6.6,3.5-14.1,9.2-32.5l13.8-43.9h13.3l-31.5,95.6c-5.6,16.8-14.5,28.1-32.7,28.1
		c-4.4,0-8-0.8-10.2-1.6L767.5,208.6z"/>
</g>
<g id="XMLID_42_">
	<path id="XMLID_43_" class="st0" d="M147.4,236.6h31.4c32.8,0,47.7,16,47.7,48.2c0,25.8-10.2,52.7-47.4,52.7h-31.7V236.6z
		 M169.2,319.4h8.1c20.6,0,26.5-13.1,26.5-32.5c0-24.3-10.7-32.1-26.6-32.1h-7.9V319.4z"/>
	<path id="XMLID_46_" class="st0" d="M244.7,337.6v-101h59.8v18.1h-37.9v22.5h32.6v18.1h-32.6v24.1h39.6v18.1H244.7z"/>
	<path id="XMLID_48_" class="st0" d="M347.8,236.6v82.8H385v18.1h-59.2v-101H347.8z"/>
	<path id="XMLID_50_" class="st0" d="M400.1,236.6h22v101h-22V236.6z"/>
	<path id="XMLID_52_" class="st0" d="M486.2,235.3c19.9,0,28.8,8.8,31.5,11.8l-14.4,16c-3.3-4-8.1-9.2-18.7-9.2
		c-13.5,0-20.5,10.2-20.5,32.8c0,20.9,7.2,33.4,22.3,33.4c9.4,0,15-4.9,18-8.5l12.1,15.6c-4.3,5.2-14.5,11.8-32,11.8
		c-31,0-43.1-20.7-43.1-50.8C441.6,256.4,456.7,235.3,486.2,235.3z"/>
	<path id="XMLID_54_" class="st0" d="M532.9,236.6h22v101h-22V236.6z"/>
	<path id="XMLID_56_" class="st0" d="M615.4,339c-25.2,0-41-13.5-41-51.3c0-36.7,17.9-52.6,42.3-52.6c25.1,0,41.3,13.8,41.3,51.4
		C658.1,323.3,640,339,615.4,339z M616.7,320.7c11.5,0,18.6-8.2,18.6-33.1c0-25.2-7.6-34.1-19.9-34.1c-10.8,0-18.4,7.8-18.4,32.8
		C597,311.8,604.5,320.7,616.7,320.7z"/>
	<path id="XMLID_59_" class="st0" d="M732.1,301v-64.4h22v61.2c0,30.8-18.9,41.2-41.2,41.2c-26.1,0-37-15.7-37-36.4v-66h22v61.6
		c0,14.4,5,22.3,18,22.3C726.5,320.6,732.1,315,732.1,301z"/>
	<path id="XMLID_61_" class="st0" d="M819.9,310.7c0-16-46.5-13.8-46.5-45.7c0-16.7,14.7-29.8,35.6-29.8c16.9,0,27.4,7.8,30.7,12.1
		L826,263.6c-2.4-3-8.2-9.4-18.9-9.4c-7.2,0-11.2,4-11.2,9.1c0,16.3,46.4,13.8,46.4,45.9c0,15.1-12.5,29.8-38.2,29.8
		c-19.4,0-31.5-8.6-35-12.5l12.5-18.1c4.3,4.3,13.1,12.1,25.3,12.1C815.8,320.4,819.9,316,819.9,310.7z"/>
</g>
</svg>
